# xmcd CD database file
#
# Track frame offsets:
#	150
#	13670
#	29625
#	46177
#	65302
#	76430
#	90195
#	104835
#	122735
#	138110
#
# Disc length: 2018 seconds
#
# Revision: 0
# Processed by: cddbd v1.5.1PL0 Copyright (c) Steve Scherf et al.
# Submitted via: CDex 1.51
#
DISCID=7b07e00a
DTITLE=Chicago Bob Nelson - Hit And Run Lover
DYEAR=1992
DGENRE=Blues
TTITLE0=Hit and Run Lover
TTITLE1=Mash Your Potatoes
TTITLE2=Bus Drivin' Woman
TTITLE3=Car Telephone
TTITLE4=She's Fine
TTITLE5=Locksmith
TTITLE6=Rock These Blues
TTITLE7=Comin' Back Strong
TTITLE8=Goin' in the Valley
TTITLE9=Think It Over
EXTD=YEAR: 1992
EXTT0=
EXTT1=
EXTT2=
EXTT3=
EXTT4=
EXTT5=
EXTT6=
EXTT7=
EXTT8=
EXTT9=
PLAYORDER=
